<svg xmlns="http://www.w3.org/2000/svg" viewBox="0 0 315.53 104.73"><defs><style>.cls-1,.cls-2{fill-rule:evenodd;}.cls-2{fill:#fcca00;}.cls-3{fill:#fff;}</style></defs><title>Asset 1</title><g id="Layer_2" data-name="Layer 2"><g id="Layer_1-2" data-name="Layer 1"><path class="cls-1" d="M55.83,15.24H8.51A8.14,8.14,0,0,0,.4,23.35V88.16a8.14,8.14,0,0,0,8.11,8.11H115.15a8.14,8.14,0,0,0,8.11-8.11V6.94A7,7,0,0,0,116.32,0H66.64a7,7,0,0,0-6.94,6.94v4.26C59.86,14.17,57.75,15.24,55.83,15.24Z"/><path class="cls-2" d="M68,22.72h47.69a8.2,8.2,0,0,1,8.18,8.18V96.22a8.2,8.2,0,0,1-8.18,8.18H8.18A8.2,8.2,0,0,1,0,96.22V14.36a7,7,0,0,1,7-7H57.07a7,7,0,0,1,7,7v4.3C63.9,21.65,66,22.72,68,22.72Z"/><circle class="cls-3" cx="94.67" cy="77.4" r="21.17"/><path class="cls-1" d="M105.66,73.93c-6.6-2.87-13.4-5.28-20.09-7.91a1,1,0,0,0-1.25,1.29L92,87.86a1,1,0,0,0,1.89.13l2.75-4.63a1,1,0,0,1,1.64,0l5,5.09c.5.55,1.15.88,1.82.16l1.78-1.85a1,1,0,0,0,0-1.5c-1.77-1.83-3.56-3.49-5.32-5.34a1,1,0,0,1,.24-1.57l4.07-2.53A1,1,0,0,0,105.66,73.93Z"/><path class="cls-1" d="M154.16,71.76h-9l-1.72,4.16h-4.61l8.66-19.42h4.44l8.68,19.42h-4.72l-1.72-4.16Zm-1.42-3.41-3.08-7.43-3.08,7.43Zm18.64-7.57a6.14,6.14,0,0,1,4.48,1.66,6.6,6.6,0,0,1,1.71,4.94v8.54h-4.33V68a3.89,3.89,0,0,0-.78-2.65,2.85,2.85,0,0,0-2.25-.87,3.44,3.44,0,0,0-2.61,1,4.19,4.19,0,0,0-1,3v7.38h-4.33V61h4.13v1.75a5.74,5.74,0,0,1,2.14-1.46,7.44,7.44,0,0,1,2.8-.51Zm25.47-5.44V75.93h-4.13V74.21a5.71,5.71,0,0,1-4.66,1.94,7.75,7.75,0,0,1-3.81-.94,6.75,6.75,0,0,1-2.68-2.69,8.93,8.93,0,0,1,0-8.1,6.75,6.75,0,0,1,2.68-2.69,7.75,7.75,0,0,1,3.81-.94,5.68,5.68,0,0,1,4.47,1.8V55.34Zm-8,17.26a3.62,3.62,0,0,0,2.72-1.12,4.73,4.73,0,0,0,0-6,3.89,3.89,0,0,0-5.47,0,4.73,4.73,0,0,0,0,6,3.65,3.65,0,0,0,2.75,1.12ZM205,63a4.81,4.81,0,0,1,2.09-1.64,7.77,7.77,0,0,1,3-.55v4l-1-.06a4,4,0,0,0-2.91,1,4.2,4.2,0,0,0-1.05,3.12v7h-4.33V61H205v2Zm14.68,13.18a9,9,0,0,1-4.23-1,7.32,7.32,0,0,1-2.93-2.73,8,8,0,0,1,0-7.93,7.32,7.32,0,0,1,2.93-2.73,9.55,9.55,0,0,1,8.45,0,7.34,7.34,0,0,1,2.91,2.73,8,8,0,0,1,0,7.93,7.35,7.35,0,0,1-2.91,2.73,8.87,8.87,0,0,1-4.22,1Zm0-3.55a3.6,3.6,0,0,0,2.73-1.12,4.78,4.78,0,0,0,0-6,3.61,3.61,0,0,0-2.73-1.12,3.65,3.65,0,0,0-2.75,1.12,4.73,4.73,0,0,0,0,6,3.65,3.65,0,0,0,2.75,1.12ZM230.73,61h4.33V75.93h-4.33V61Zm2.16-2.08a2.75,2.75,0,0,1-1.94-.69,2.35,2.35,0,0,1,0-3.44,2.75,2.75,0,0,1,1.94-.69,2.81,2.81,0,0,1,1.94.67,2.14,2.14,0,0,1,.75,1.66,2.36,2.36,0,0,1-.75,1.79,2.71,2.71,0,0,1-1.94.71Zm21.39-3.58V75.93h-4.13V74.21a5.71,5.71,0,0,1-4.66,1.94,7.75,7.75,0,0,1-3.81-.94A6.75,6.75,0,0,1,239,72.51a8.93,8.93,0,0,1,0-8.1,6.75,6.75,0,0,1,2.68-2.69,7.75,7.75,0,0,1,3.81-.94,5.68,5.68,0,0,1,4.47,1.8V55.34Zm-8,17.26A3.62,3.62,0,0,0,249,71.47a4.73,4.73,0,0,0,0-6,3.89,3.89,0,0,0-5.47,0,4.73,4.73,0,0,0,0,6A3.65,3.65,0,0,0,246.24,72.6Z"/><path class="cls-2" d="M143.31,88.58v5.13h9v3.61h-9v7.07h-4.49V85h14.68v3.61Zm12.65.89h4.33v14.92H156V89.47Zm2.16-2.08a2.75,2.75,0,0,1-1.94-.69,2.35,2.35,0,0,1,0-3.44,2.75,2.75,0,0,1,1.94-.69,2.81,2.81,0,0,1,1.94.67,2.14,2.14,0,0,1,.75,1.66,2.36,2.36,0,0,1-.75,1.79,2.71,2.71,0,0,1-1.94.71Zm6.19-3.58h4.33v20.58h-4.33V83.81Zm23,13.18q0,.08-.08,1.16H175.91a3.52,3.52,0,0,0,1.44,2.19,4.78,4.78,0,0,0,2.83.8,5.73,5.73,0,0,0,2.07-.35,5,5,0,0,0,1.68-1.1l2.3,2.5a7.74,7.74,0,0,1-6.16,2.41,9.74,9.74,0,0,1-4.47-1,7.22,7.22,0,0,1-3-2.73,7.53,7.53,0,0,1-1.05-4,7.63,7.63,0,0,1,1-4,7.29,7.29,0,0,1,2.86-2.75,8.85,8.85,0,0,1,8,0,6.88,6.88,0,0,1,2.79,2.7,8.06,8.06,0,0,1,1,4.09Zm-7.74-4.47a3.73,3.73,0,0,0-2.47.83,3.54,3.54,0,0,0-1.22,2.27h7.35A3.58,3.58,0,0,0,182,93.37a3.65,3.65,0,0,0-2.44-.85Zm28.07,12.21a11.16,11.16,0,0,1-5.37-1.29,9.63,9.63,0,0,1-3.77-3.58,10.43,10.43,0,0,1,0-10.35,9.63,9.63,0,0,1,3.77-3.58,12,12,0,0,1,10-.4,9.14,9.14,0,0,1,3.43,2.55l-2.89,2.66a6.2,6.2,0,0,0-4.88-2.27,6.48,6.48,0,0,0-3.22.79,5.62,5.62,0,0,0-2.21,2.21,6.94,6.94,0,0,0,0,6.44,5.62,5.62,0,0,0,2.21,2.21,6.48,6.48,0,0,0,3.22.79,6.17,6.17,0,0,0,4.88-2.3l2.89,2.66a9,9,0,0,1-3.44,2.58,11.42,11.42,0,0,1-4.58.89Zm19.81-15.48a6.14,6.14,0,0,1,4.48,1.66,6.6,6.6,0,0,1,1.71,4.94v8.54h-4.33V96.51a3.89,3.89,0,0,0-.78-2.65,2.85,2.85,0,0,0-2.25-.87,3.44,3.44,0,0,0-2.61,1,4.19,4.19,0,0,0-1,3v7.38h-4.33V83.81h4.33V91a5.76,5.76,0,0,1,2.08-1.32,7.53,7.53,0,0,1,2.66-.46Zm17.37,15.37a9,9,0,0,1-4.23-1,7.32,7.32,0,0,1-2.93-2.73,8,8,0,0,1,0-7.93,7.32,7.32,0,0,1,2.93-2.73,9.55,9.55,0,0,1,8.45,0A7.34,7.34,0,0,1,251.92,93a8,8,0,0,1,0,7.93,7.35,7.35,0,0,1-2.91,2.73,8.87,8.87,0,0,1-4.22,1Zm0-3.55a3.6,3.6,0,0,0,2.73-1.12,4.78,4.78,0,0,0,0-6,3.61,3.61,0,0,0-2.73-1.12A3.65,3.65,0,0,0,242,93.92a4.73,4.73,0,0,0,0,6,3.65,3.65,0,0,0,2.75,1.12ZM263,104.61a9,9,0,0,1-4.23-1,7.32,7.32,0,0,1-2.93-2.73,8,8,0,0,1,0-7.93,7.32,7.32,0,0,1,2.93-2.73,9.55,9.55,0,0,1,8.45,0A7.34,7.34,0,0,1,270.09,93a8,8,0,0,1,0,7.93,7.35,7.35,0,0,1-2.91,2.73,8.87,8.87,0,0,1-4.22,1Zm0-3.55a3.6,3.6,0,0,0,2.73-1.12,4.78,4.78,0,0,0,0-6A3.61,3.61,0,0,0,263,92.8a3.65,3.65,0,0,0-2.75,1.12,4.73,4.73,0,0,0,0,6,3.65,3.65,0,0,0,2.75,1.12ZM279,104.61a14.49,14.49,0,0,1-3.63-.46,9.49,9.49,0,0,1-2.83-1.15L274,99.9a9.09,9.09,0,0,0,2.41,1,10.12,10.12,0,0,0,2.77.4q2.75,0,2.75-1.36a1,1,0,0,0-.75-.92,11.09,11.09,0,0,0-2.3-.47,22.23,22.23,0,0,1-3-.64,4.69,4.69,0,0,1-2.07-1.28,3.63,3.63,0,0,1-.87-2.61,4.08,4.08,0,0,1,.82-2.51,5.26,5.26,0,0,1,2.39-1.71,10.19,10.19,0,0,1,3.7-.61,14.53,14.53,0,0,1,3.15.35,8.81,8.81,0,0,1,2.59,1l-1.44,3.08a8.61,8.61,0,0,0-4.3-1.11,4.38,4.38,0,0,0-2.08.39,1.14,1.14,0,0,0-.69,1,1,1,0,0,0,.75,1,13.26,13.26,0,0,0,2.39.53,25.51,25.51,0,0,1,3,.65,4.5,4.5,0,0,1,2,1.26,3.58,3.58,0,0,1,.86,2.55,3.94,3.94,0,0,1-.83,2.47,5.32,5.32,0,0,1-2.43,1.68,10.81,10.81,0,0,1-3.79.6ZM303.38,97q0,.08-.08,1.16H292a3.52,3.52,0,0,0,1.44,2.19,4.78,4.78,0,0,0,2.83.8,5.73,5.73,0,0,0,2.07-.35A5,5,0,0,0,300,99.7l2.3,2.5a7.74,7.74,0,0,1-6.16,2.41,9.74,9.74,0,0,1-4.47-1,7.22,7.22,0,0,1-3-2.73,7.53,7.53,0,0,1-1.05-4,7.63,7.63,0,0,1,1-4,7.29,7.29,0,0,1,2.86-2.75,8.85,8.85,0,0,1,8,0,6.88,6.88,0,0,1,2.79,2.7,8.06,8.06,0,0,1,1,4.09Zm-7.74-4.47a3.73,3.73,0,0,0-2.47.83,3.54,3.54,0,0,0-1.22,2.27h7.35a3.58,3.58,0,0,0-1.22-2.26,3.65,3.65,0,0,0-2.44-.85Zm14.76-1.08a4.81,4.81,0,0,1,2.09-1.64,7.77,7.77,0,0,1,3-.55v4l-1-.06a4,4,0,0,0-2.91,1,4.2,4.2,0,0,0-1.05,3.12v7h-4.33V89.47h4.13Z"/></g></g></svg>